<?xml version="1.0" encoding="iso-8859-1"?>
<!-- Generator: Adobe Illustrator 19.0.0, SVG Export Plug-In . SVG Version: 6.00 Build 0)  -->
<svg version="1.1" id="Capa_1" xmlns="http://www.w3.org/2000/svg" xmlns:xlink="http://www.w3.org/1999/xlink" x="0px" y="0px"
	 viewBox="0 0 512 512" style="enable-background:new 0 0 512 512;" xml:space="preserve">
<polygon style="fill:#FEDC3D;" points="316.809,145.809 0,85 0,25 196,25 "/>
<polygon style="fill:#BFA52E;" points="256,85 196,220 512,220 512,85 "/>
<rect y="85" style="fill:#DFC136;" width="256" height="135"/>
<polygon style="fill:#ABECEC;" points="256,115 196,190 482,145 482,115 "/>
<g>
	<polygon style="fill:#D5F6F5;" points="30,115 30,145 256,190 256,115 	"/>
	<polygon style="fill:#D5F6F5;" points="256,145 196,220 482,220 482,145 	"/>
</g>
<rect x="30" y="145" style="fill:#FFFFFF;" width="226" height="75"/>
<path style="fill:#FFE985;" d="M256,175v312H0V220c0-24.75,20.25-45,45-45H256z"/>
<path style="fill:#FEDC3D;" d="M512,220v267H256V175h211C491.75,175,512,195.25,512,220z"/>
<g>
</g>
<g>
</g>
<g>
</g>
<g>
</g>
<g>
</g>
<g>
</g>
<g>
</g>
<g>
</g>
<g>
</g>
<g>
</g>
<g>
</g>
<g>
</g>
<g>
</g>
<g>
</g>
<g>
</g>
</svg>
